<svg xmlns="http://www.w3.org/2000/svg" width="881" height="378" viewBox="0 0 881 378" version="1.1"><path d="M 122.507 71.559 C 103.172 76.415, 85.771 90.522, 76.940 108.500 C 71.660 119.249, 69.691 127.494, 69.658 139 C 69.605 157.238, 75.237 172.659, 86.823 186 L 89.862 189.500 98.997 180.500 L 108.132 171.500 106.316 176 C 105.055 179.123, 104.500 183.107, 104.500 189.021 C 104.500 196.619, 104.853 198.259, 107.760 204.163 C 109.563 207.827, 112.860 212.448, 115.140 214.507 C 124.599 223.053, 138.778 226.154, 150.385 222.216 L 156.269 220.219 122.885 253.671 L 89.500 287.123 94.293 291.512 C 100.478 297.178, 107.530 301.167, 117.500 304.639 C 124.741 307.161, 126.781 307.424, 139 307.405 C 150.835 307.388, 153.459 307.065, 160.278 304.790 C 181.876 297.583, 198.611 280.844, 205.780 259.278 C 208.007 252.579, 208.375 249.696, 208.433 238.500 C 208.494 226.750, 208.221 224.649, 205.598 216.645 C 202.646 207.640, 195.628 195.650, 190.614 191.049 L 187.943 188.598 178.986 197.514 L 170.029 206.429 172.116 200.965 C 175.117 193.105, 174.456 180.647, 170.643 173.216 C 167.192 166.491, 161.509 160.808, 154.784 157.357 C 147.342 153.538, 134.896 152.883, 127.011 155.894 C 121.606 157.957, 122.043 157.467, 155.350 124.150 L 189.180 90.310 184.840 86.584 C 178.209 80.892, 170.302 76.429, 161.490 73.406 C 154.776 71.102, 151.504 70.616, 141 70.359 C 132.282 70.146, 126.687 70.509, 122.507 71.559 M 302.477 96.929 C 288.534 99.141, 276.976 104.985, 268.713 114 C 255.905 127.975, 252.793 149.113, 260.957 166.680 C 267.251 180.223, 278.171 188.271, 304.079 198.461 C 326.146 207.140, 332.074 210.106, 337.668 215.262 C 343.938 221.041, 346.336 226.099, 346.357 233.589 C 346.421 255.634, 317.565 267.876, 292.827 256.300 C 285.074 252.672, 277.619 245.519, 272.254 236.560 L 268.373 230.080 260.525 237.975 L 252.677 245.869 256.088 251.529 C 263.838 264.385, 279.503 275.698, 295 279.628 C 310.661 283.600, 333.279 280.795, 345.733 273.336 C 362.755 263.142, 370.621 248.671, 369.831 229.001 C 369.478 220.203, 369.086 218.559, 365.724 211.756 C 361.335 202.875, 352.641 194.134, 342.627 188.534 C 339.078 186.549, 328.373 181.968, 318.838 178.353 C 298.748 170.736, 293.432 168.196, 288.478 163.847 C 274.634 151.692, 278.850 127.473, 296.101 120.052 C 303.259 116.972, 313.760 116.306, 321.967 118.411 C 333.731 121.428, 342.431 128.753, 348.238 140.529 C 349.993 144.088, 351.681 147, 351.988 147 C 352.295 147, 356.082 143.444, 360.403 139.098 L 368.259 131.196 364.950 125.348 C 357.861 112.818, 344.043 102.330, 329.701 98.594 C 322.472 96.712, 309.032 95.890, 302.477 96.929 M 652 136.212 L 652 173.425 647.250 168.806 C 636.334 158.192, 622.919 152.890, 606.500 152.699 C 594.396 152.559, 588.158 153.942, 577 159.241 C 570.173 162.483, 566.903 164.874, 560.382 171.389 C 547.338 184.422, 541.680 197.918, 541.680 216 C 541.680 246.725, 561.273 271.990, 591 279.596 C 598.734 281.574, 613.470 281.786, 621.097 280.027 C 630.166 277.936, 640.208 272.563, 646.359 266.509 L 652 260.958 652 269.979 L 652 279 663 279 L 674 279 674 189 L 674 99 663 99 L 652 99 652 136.212 M 514.092 107.161 C 508.449 111.034, 506.500 114.458, 506.500 120.500 C 506.500 129.465, 512.544 135.534, 521.390 135.451 C 540.848 135.267, 541.721 107.078, 522.324 105.271 C 518.432 104.909, 516.842 105.274, 514.092 107.161 M 389.750 132.747 L 379 143.533 379 149.266 L 379 155 372 155 L 365 155 365 165 L 365 175 371.952 175 L 378.903 175 379.202 219.250 C 379.495 262.808, 379.535 263.565, 381.727 267.666 C 384.160 272.216, 387.588 275.028, 393 276.914 C 397.258 278.397, 417.282 279.545, 422.342 278.596 L 426 277.909 426 267.955 L 426 258 415.955 258 C 406.622 258, 405.735 257.826, 403.455 255.545 L 401 253.091 401 214.045 L 401 175 413 175 L 425 175 425 165 L 425 155 413.024 155 L 401.048 155 400.774 138.481 L 400.500 121.962 389.750 132.747 M 476 153.337 C 468.697 155.023, 465.096 157.044, 460.675 161.938 L 457 166.006 457 160.503 L 457 155 446 155 L 435 155 435 217 L 435 279 445.931 279 L 456.863 279 457.225 237.250 C 457.552 199.554, 457.769 194.985, 459.462 190.200 C 461.775 183.658, 467.726 176.723, 472.734 174.734 C 480.325 171.718, 491.777 171.632, 499.250 174.534 C 500.846 175.154, 501 174.327, 501 165.146 L 501 155.077 497.250 154.093 C 490.608 152.349, 481.656 152.030, 476 153.337 M 736.536 153.059 C 706.182 157.753, 685.211 181.177, 683.286 212.535 C 680.891 251.569, 708.958 280.902, 749 281.214 C 768.568 281.367, 780.328 276.484, 799.807 260.118 L 805.114 255.659 797.393 247.892 L 789.671 240.125 783.151 246.099 C 770.993 257.239, 756.486 262.359, 742.996 260.271 C 725.142 257.507, 709.808 243.919, 707.333 228.667 L 706.738 225 758.869 225 L 811 225 810.965 220.250 C 810.914 213.350, 808.574 201.510, 805.729 193.758 C 798.590 174.311, 782.628 159.391, 763.831 154.597 C 756.144 152.637, 743.775 151.940, 736.536 153.059 M 510.459 156.250 C 510.196 156.938, 510.098 184.725, 510.241 218 L 510.500 278.500 521.250 278.784 L 532 279.068 532 217.034 L 532 155 521.469 155 C 513.965 155, 510.800 155.359, 510.459 156.250 M 598.459 174.395 C 565.466 182.410, 553.932 222.358, 577.293 247.702 C 582.299 253.133, 593.452 258.743, 602.232 260.247 C 624.761 264.106, 647.207 247.352, 651.267 223.648 C 656.376 193.825, 627.879 167.247, 598.459 174.395 M 735.024 174.603 C 721.115 178.341, 709.420 190.475, 707.333 203.333 L 706.738 207 746.449 207 L 786.159 207 785.488 203.750 C 781.012 182.055, 757.605 168.535, 735.024 174.603" stroke="none" fill="#fffcfc" fill-rule="evenodd"/><path d="" stroke="none" fill="#fcfcfc" fill-rule="evenodd"/></svg>